<svg xmlns="http://www.w3.org/2000/svg" xmlns:xlink="http://www.w3.org/1999/xlink" width="1080" zoomAndPan="magnify" viewBox="0 0 810 809.999993" height="1080" preserveAspectRatio="xMidYMid meet" version="1.0"><defs><g/></defs><g fill="#ffffff" fill-opacity="1"><g transform="translate(7.717944, 571.5725)"><g><path d="M 25.125 0 L 25.125 -334.328125 L 162.234375 -334.328125 C 187.503906 -334.328125 209.300781 -329.800781 227.625 -320.75 C 245.957031 -311.695312 260.097656 -298.832031 270.046875 -282.15625 C 279.992188 -265.476562 284.96875 -245.695312 284.96875 -222.8125 C 284.96875 -199.925781 279.878906 -180.363281 269.703125 -164.125 C 259.535156 -147.894531 245.0625 -135.515625 226.28125 -126.984375 C 207.507812 -118.460938 185.1875 -114.203125 159.3125 -114.203125 L 72.703125 -114.203125 L 72.703125 -177.03125 L 147.859375 -177.03125 C 159.984375 -177.03125 170.15625 -178.710938 178.375 -182.078125 C 186.601562 -185.453125 192.847656 -190.539062 197.109375 -197.34375 C 201.378906 -204.144531 203.515625 -212.632812 203.515625 -222.8125 C 203.515625 -233.132812 201.378906 -241.734375 197.109375 -248.609375 C 192.847656 -255.492188 186.601562 -260.726562 178.375 -264.3125 C 170.15625 -267.90625 159.984375 -269.703125 147.859375 -269.703125 L 104.5625 -269.703125 L 104.5625 0 Z M 209.578125 0 L 129.46875 -152.359375 L 214.0625 -152.359375 L 295.953125 0 Z M 209.578125 0 "/></g></g></g><g fill="#ffffff" fill-opacity="1"><g transform="translate(311.081214, 571.5725)"><g><path d="M 177.703125 4.71875 C 145.691406 4.71875 117.644531 -2.234375 93.5625 -16.140625 C 69.476562 -30.054688 50.703125 -49.84375 37.234375 -75.5 C 23.773438 -101.15625 17.046875 -131.5625 17.046875 -166.71875 C 17.046875 -203.21875 24.113281 -234.289062 38.25 -259.9375 C 52.382812 -285.59375 71.53125 -305.1875 95.6875 -318.71875 C 119.851562 -332.257812 146.820312 -339.03125 176.59375 -339.03125 C 195.882812 -339.03125 213.90625 -336.265625 230.65625 -330.734375 C 247.414062 -325.203125 262.335938 -317.3125 275.421875 -307.0625 C 288.515625 -296.8125 299.097656 -284.65625 307.171875 -270.59375 C 315.253906 -256.539062 320.265625 -241.0625 322.203125 -224.15625 L 241.65625 -224.15625 C 240.007812 -231.1875 237.316406 -237.503906 233.578125 -243.109375 C 229.835938 -248.722656 225.273438 -253.472656 219.890625 -257.359375 C 214.503906 -261.253906 208.332031 -264.207031 201.375 -266.21875 C 194.425781 -268.238281 186.757812 -269.25 178.375 -269.25 C 161.925781 -269.25 147.679688 -265.25 135.640625 -257.25 C 123.597656 -249.25 114.320312 -237.65625 107.8125 -222.46875 C 101.300781 -207.289062 98.046875 -188.929688 98.046875 -167.390625 C 98.046875 -145.847656 101.222656 -127.445312 107.578125 -112.1875 C 113.941406 -96.925781 123.144531 -85.257812 135.1875 -77.1875 C 147.226562 -69.113281 161.773438 -65.078125 178.828125 -65.078125 C 193.640625 -65.078125 206.242188 -67.539062 216.640625 -72.46875 C 227.035156 -77.40625 234.960938 -84.4375 240.421875 -93.5625 C 245.878906 -102.6875 248.609375 -113.382812 248.609375 -125.65625 L 264.3125 -123.859375 L 181.75 -123.859375 L 181.75 -182.203125 L 325.796875 -182.203125 L 325.796875 -138 C 325.796875 -108.53125 319.4375 -83.132812 306.71875 -61.8125 C 294.007812 -40.5 276.546875 -24.082031 254.328125 -12.5625 C 232.117188 -1.039062 206.578125 4.71875 177.703125 4.71875 Z M 177.703125 4.71875 "/></g></g></g><g fill="#3b82f6" fill-opacity="1"><g transform="translate(655.284318, 571.5725)"><g><path d="M 76.0625 4.71875 C 64.09375 4.71875 54.03125 0.679688 45.875 -7.390625 C 37.726562 -15.472656 33.65625 -25.425781 33.65625 -37.25 C 33.65625 -49.0625 37.726562 -59.003906 45.875 -67.078125 C 54.03125 -75.160156 64.09375 -79.203125 76.0625 -79.203125 C 88.03125 -79.203125 98.085938 -75.160156 106.234375 -67.078125 C 114.390625 -59.003906 118.46875 -49.0625 118.46875 -37.25 C 118.46875 -25.425781 114.390625 -15.472656 106.234375 -7.390625 C 98.085938 0.679688 88.03125 4.71875 76.0625 4.71875 Z M 76.0625 4.71875 "/></g></g></g></svg>